<svg id="图层_1" data-name="图层 1" xmlns="http://www.w3.org/2000/svg" xmlns:xlink="http://www.w3.org/1999/xlink" viewBox="0 0 400 400"><defs><style>.cls-1{fill:url(#未命名的渐变_8);}</style><linearGradient id="未命名的渐变_8" x1="200" y1="361.5" x2="200" y2="33.97" gradientTransform="matrix(1, 0, 0, -1, 0, 402)" gradientUnits="userSpaceOnUse"><stop offset="0" stop-color="#f670bc"/><stop offset="1" stop-color="#ff2d55"/></linearGradient></defs><title>basis-cash-logo</title><path class="cls-1" d="M200,368c-92.64,0-168-75.36-168-168A168.38,168.38,0,0,1,117.58,53.58h0A168.07,168.07,0,0,1,200,32c92.64,0,168,75.36,168,168S292.64,368,200,368Zm-69-89a70,70,0,1,0,70-70A70.08,70.08,0,0,0,131,279ZM113,77.79a150,150,0,0,0,19.17,256A87.55,87.55,0,0,1,113,280.5h0ZM201,191a88,88,0,0,1,70.21,141A150.14,150.14,0,0,0,350,200c0-82.71-67.29-150-150-150a150.16,150.16,0,0,0-69,16.78V225.73A87.91,87.91,0,0,1,201,191Z"/></svg>