<svg id="图层_1" data-name="图层 1" xmlns="http://www.w3.org/2000/svg" xmlns:xlink="http://www.w3.org/1999/xlink" viewBox="0 0 192.38 192.38"><defs><style>.cls-1{fill:none;}.cls-2{clip-path:url(#clip-path);}.cls-3,.cls-7{fill:#2c69b3;}.cls-4,.cls-5{fill:#09328e;}.cls-5{font-size:20.82px;font-family:Swiss721BT-Black, Swis721 Blk BT;font-weight:800;}.cls-6{fill:#231815;}.cls-7{letter-spacing:0em;}</style><clipPath id="clip-path"><rect class="cls-1" x="64.08" y="40.95" width="57" height="78" transform="translate(12.63 172.53) rotate(-90)"/></clipPath></defs><title>Okt cash-LOGO</title><g class="cls-2"><path class="cls-3" d="M54.83,87.7a36,36,0,1,0,36-36A36,36,0,0,0,54.83,87.7Zm58.5,0a22.5,22.5,0,1,1-22.5-22.5A22.5,22.5,0,0,1,113.33,87.7Z"/></g><path class="cls-4" d="M61.41,108.45,88.91,92A3.06,3.06,0,0,1,92,92l28.22,16.51L106,116a3,3,0,0,1-3,0L91.28,109a2.77,2.77,0,0,0-2.87,0l-11,6.82a3.1,3.1,0,0,1-3.19,0Z"/><text class="cls-5" transform="translate(44.52 147.86)">Ok<tspan class="cls-6" x="31.08" y="0"> </tspan><tspan class="cls-7" x="37.93" y="0">Cash </tspan></text></svg>