<svg id="图层_1" data-name="图层 1" xmlns="http://www.w3.org/2000/svg" viewBox="0 0 192.38 192.38"><defs><style>.cls-1{font-size:20.82px;fill:#231815;font-family:Swiss721BT-Black, Swis721 Blk BT;font-weight:800;}.cls-2{fill:#2c69b3;}.cls-3{fill:#09328e;}</style></defs><title>Okt cash-LOGO</title><text class="cls-1" transform="translate(55.74 144.81)">Ok Share</text><path class="cls-2" d="M108.18,66s14.58-5,24.65,2.78c4,3.72,9.39,27.21-10.61,41.59-6.07,5.3-31,12.07-48-15.06,1.65,2.28,17,11.71,33.57,1.16,0,0,11.44-8.1,10.23-20C117.35,71.81,115.84,64.74,108.18,66Z"/><path class="cls-3" d="M99.24,97.07s-14.58,5-24.65-2.79c-4-3.71-9.4-27.21,10.6-41.58,6.88-6,31-12.07,48,15-1.64-2.27-17-11.71-33.57-1.15,0,0-11.43,8.1-10.22,20C90.07,91.25,91.58,98.31,99.24,97.07Z"/></svg>